# File created by Blade
# Date/Time:  Fri Jan 16 17:25:32 2015
#---------------------------------------------------------
:version 1.10
:name HOM
:units
  mass 1.0
  length 1.000000
  angle deg
:documentation
     Acclaim Skeleton File
:root
   axis xyz
   order TX TY TZ RX RY RZ
   position 0.000000 0.000000 0.000000
   orientation 0 0 0
:bonedata
   begin
      id 1
      name Spine_dum
      direction 0.000000 1.000000 0.000000
      length 7.170412
      axis 0.0 0.0 0.0 xyz
   end
   begin
      id 2
      name LeftUpLeg_dum
      direction 1.000000 0.000000 0.000000
      length 4.318350
      axis 0.0 0.0 0.0 xyz
   end
   begin
      id 3
      name RightUpLeg_dum
      direction -1.000000 0.000000 0.000000
      length 4.318350
      axis 0.0 0.0 0.0 xyz
   end
   begin
      id 4
      name Spine
      direction 0.000000 1.000000 0.000000
      length 0.000000
      axis 0.0 0.0 0.0 xyz
      dof rx ry rz
   end
   begin
      id 5
      name Spine_dum1
      direction 0.000000 1.000000 0.000000
      length 14.276153
      axis 0.0 0.0 0.0 xyz
   end
   begin
      id 6
      name Spine_dum2
      direction 0.000000 1.000000 0.000000
      length 10.718243
      axis 0.0 0.0 0.0 xyz
   end
   begin
      id 7
      name Spine_dum3
      direction 0.000000 1.000000 0.000000
      length 10.718243
      axis 0.0 0.0 0.0 xyz
   end
   begin
      id 8
      name Head
      direction 0.000000 1.000000 0.000000
      length 4.527550
      axis 0.0 0.0 0.0 xyz
      dof rx ry rz
   end
   begin
      id 9
      name LeftShoulder
      direction 1.000000 0.000000 0.000000
      length 7.058872
      axis 0.0 0.0 -90.0 xyz
      dof rx ry rz
   end
   begin
      id 10
      name LeftArm
      direction 1.000000 0.000000 0.000000
      length 10.955525
      axis 0.0 0.0 -90.0 xyz
      dof rx ry rz
   end
   begin
      id 11
      name LeftForeArm
      direction 1.000000 0.000000 0.000000
      length 8.193716
      axis 0.0 0.0 -90.0 xyz
      dof ry rz rx
   end
   begin
      id 12
      name LeftHand
      direction 0.000000 0.000000 0.000000
      length 0.000000
      axis 0.0 0.0 -90.0 xyz
      dof rx ry rz
   end
   begin
      id 13
      name LeftHand_dum1
      direction 0.000000 0.000000 0.000000
      length 0.000000
      axis 0.0 0.0 -90.0 xyz
   end
   begin
      id 14
      name LeftHand_dum2
      direction 1.000000 0.000000 0.000000
      length 3.937000
      axis 0.0 0.0 -90.0 xyz
   end
   begin
      id 15
      name LeftHandThumb1
      direction 0.000000 0.000000 1.000000
      length 3.937000
      axis 0.0 0.0 -90.0 xyz
      dof rx rz ry
   end
   begin
      id 16
      name RightShoulder
      direction -1.000000 0.000000 0.000000
      length 7.058872
      axis 0.0 0.0 90.0 xyz
      dof rx ry rz
   end
   begin
      id 17
      name RightArm
      direction -1.000000 0.000000 0.000000
      length 10.955525
      axis 0.0 0.0 90.0 xyz
      dof rx ry rz
   end
   begin
      id 18
      name RightForeArm
      direction -1.000000 0.000000 0.000000
      length 8.193716
      axis 0.0 0.0 90.0 xyz
      dof ry rz rx
   end
   begin
      id 19
      name RightHand
      direction 0.000000 0.000000 0.000000
      length 0.000000
      axis 0.0 0.0 90.0 xyz
      dof rx ry rz
   end
   begin
      id 20
      name RightHand_dum1
      direction 0.000000 0.000000 0.000000
      length 0.000000
      axis 0.0 0.0 90.0 xyz
   end
   begin
      id 21
      name RightHand_dum2
      direction -1.000000 0.000000 0.000000
      length 3.937000
      axis 0.0 0.0 90.0 xyz
   end
   begin
      id 22
      name RightHandThumb1
      direction 0.000000 0.000000 1.000000
      length 3.937000
      axis 0.0 0.0 90.0 xyz
      dof rx rz ry
   end
   begin
      id 23
      name LeftUpLeg
      direction 0.000000 -1.000000 0.000000
      length 17.323638
      axis 0.0 0.0 0.0 xyz
      dof rx ry rz
   end
   begin
      id 24
      name LeftLeg
      direction 0.000000 -1.000000 0.000000
      length 16.270368
      axis 0.0 0.0 0.0 xyz
      dof rx ry rz
   end
   begin
      id 25
      name LeftFoot
      direction 0.000000 -0.258819 0.965926
      length 4.922846
      axis 15.0 0.0 0.0 xyz
      dof rx ry rz
   end
   begin
      id 26
      name LeftToeBase
      direction 0.000000 0.000000 1.000000
      length 2.952750
      axis 0.0 0.0 0.0 xyz
      dof rx ry rz
   end
   begin
      id 27
      name RightUpLeg
      direction 0.000000 -1.000000 0.000000
      length 17.323638
      axis 0.0 0.0 0.0 xyz
      dof rx ry rz
   end
   begin
      id 28
      name RightLeg
      direction 0.000000 -1.000000 0.000000
      length 16.270368
      axis 0.0 0.0 0.0 xyz
      dof rx ry rz
   end
   begin
      id 29
      name RightFoot
      direction 0.000000 -0.258819 0.965926
      length 4.922846
      axis 15.0 0.0 0.0 xyz
      dof rx ry rz
   end
   begin
      id 30
      name RightToeBase
      direction 0.000000 0.000000 1.000000
      length 2.952750
      axis 0.0 0.0 0.0 xyz
      dof rx ry rz
   end
:hierarchy
   begin
      root Spine_dum LeftUpLeg_dum RightUpLeg_dum
      Spine_dum Spine
      LeftUpLeg_dum LeftUpLeg
      RightUpLeg_dum RightUpLeg
      Spine Spine_dum1 Spine_dum2 Spine_dum3
      Spine_dum1 Head
      Spine_dum2 LeftShoulder
      Spine_dum3 RightShoulder
      LeftShoulder LeftArm
      LeftArm LeftForeArm
      LeftForeArm LeftHand
      LeftHand LeftHand_dum1 LeftHand_dum2
      LeftHand_dum1 LeftHandThumb1
      RightShoulder RightArm
      RightArm RightForeArm
      RightForeArm RightHand
      RightHand RightHand_dum1 RightHand_dum2
      RightHand_dum1 RightHandThumb1
      LeftUpLeg LeftLeg
      LeftLeg LeftFoot
      LeftFoot LeftToeBase
      RightUpLeg RightLeg
      RightLeg RightFoot
      RightFoot RightToeBase
   end

# File created by Blade
# Date/Time:  Fri Jan 16 17:25:22 2015
# Frame Rate: 120.000 fps
#------------------------------------------------------
:FULLY-SPECIFIED
:DEGREES
191
root -5.668032 35.254889 -10.727258 -3.408885 -9.123876 -5.932279
Spine 2.749035 0.541486 9.674338
Head 3.311859 12.867167 -4.728843
LeftShoulder -21.697342 14.958480 -16.332021
LeftArm 22.165498 -4.949031 -69.919699
LeftForeArm 6.308069 -0.000000 14.600823
LeftHand 0.188167 -0.000000 -4.713331
LeftHandThumb1 -26.253704 0.000000 33.147579
RightShoulder -3.828224 -2.463610 1.702174
RightArm 5.198746 -27.063109 64.543099
RightForeArm -19.224116 -0.000000 24.141824
RightHand -0.298400 0.000000 4.213491
RightHandThumb1 -24.326973 -0.000000 -32.862282
LeftUpLeg 12.996849 17.468442 8.298783
LeftLeg -8.622638 -0.000000 0.000000
LeftFoot -14.994644 28.343597 -8.096515
LeftToeBase 22.777775 -0.000000 -0.000000
RightUpLeg 8.221498 -4.669579 2.494205
RightLeg -3.559929 -0.000000 0.000000
RightFoot -3.860422 -22.337207 5.566180
RightToeBase 13.877904 -0.000000 -0.000000
192
root -5.671849 35.254813 -10.726932 -3.409610 -9.170214 -5.949082
Spine 2.725698 0.579950 9.690417
Head 3.300711 12.909153 -4.679571
LeftShoulder -21.642266 14.982612 -16.208890
LeftArm 22.357679 -4.624235 -69.625094
LeftForeArm 6.206962 -0.000000 14.814785
LeftHand 0.295428 -0.000000 -4.646542
LeftHandThumb1 -26.253704 0.000000 33.147579
RightShoulder -3.789396 -2.368906 1.681690
RightArm 5.250548 -26.686392 64.564262
RightForeArm -19.141597 -0.000000 24.291215
RightHand -0.233999 0.000000 4.132245
RightHandThumb1 -24.326973 -0.000000 -32.862282
LeftUpLeg 13.035292 17.491500 8.326945
LeftLeg -8.666844 -0.000000 0.000000
LeftFoot -14.988004 28.371048 -8.106500
LeftToeBase 22.805650 -0.000000 -0.000000
RightUpLeg 8.235953 -4.560131 2.524409
RightLeg -3.583388 -0.000000 0.000000
RightFoot -3.858891 -22.375976 5.604389
RightToeBase 13.874352 -0.000000 -0.000000
193
root -5.676895 35.255370 -10.725700 -3.429642 -9.195529 -5.943822
Spine 2.719641 0.598828 9.667179
Head 3.293891 12.966682 -4.613086
LeftShoulder -21.580341 14.989176 -16.079153
LeftArm 22.518596 -4.393904 -69.367085
LeftForeArm 6.232552 -0.000000 15.102250
LeftHand 0.247699 0.000000 -4.909699
LeftHandThumb1 -26.253704 0.000000 33.147579
RightShoulder -3.742488 -2.295682 1.740676
RightArm 5.331427 -26.314962 64.540083
RightForeArm -18.566174 -0.000000 24.431325
RightHand -0.305624 0.000000 3.653512
RightHandThumb1 -24.326973 -0.000000 -32.862282
LeftUpLeg 13.068646 17.460149 8.333068
LeftLeg -8.671616 -0.000000 0.000000
LeftFoot -15.012346 28.400148 -8.178079
LeftToeBase 22.824798 -0.000000 -0.000000
RightUpLeg 8.283373 -4.530559 2.527213
RightLeg -3.639998 -0.000000 0.000000
RightFoot -3.821925 -22.380715 5.603212
RightToeBase 13.844420 -0.000000 -0.000000
194
root -5.683515 35.255205 -10.726543 -3.434991 -9.211650 -5.959769
Spine 2.701644 0.610541 9.669125
Head 3.284308 12.976638 -4.563744
LeftShoulder -21.518354 15.008971 -15.958319
LeftArm 22.709968 -4.085347 -69.094358
LeftForeArm 6.165454 -0.000000 15.311423
LeftHand 0.406916 0.000000 -4.745387
LeftHandThumb1 -26.253704 0.000000 33.147579
RightShoulder -3.688475 -2.201231 1.743458
RightArm 5.367974 -25.625653 64.681828
RightForeArm -18.931671 -0.000000 24.493037
RightHand -0.203570 -0.000000 3.618745
RightHandThumb1 -24.326973 -0.000000 -32.862282
LeftUpLeg 13.087897 17.433413 8.358028
LeftLeg -8.687295 -0.000000 0.000000
LeftFoot -14.992486 28.446642 -8.157017
LeftToeBase 22.784641 -0.000000 -0.000000
RightUpLeg 8.307624 -4.514243 2.554596
RightLeg -3.673082 -0.000000 0.000000
RightFoot -3.798732 -22.385369 5.591865
RightToeBase 13.833170 -0.000000 -0.000000
195
root -5.688473 35.255107 -10.732247 -3.402741 -9.194874 -5.973177
Spine 2.645269 0.596274 9.661231
Head 3.275589 12.992504 -4.499947
LeftShoulder -21.464948 14.998032 -15.844284
LeftArm 22.884422 -3.795368 -68.825485
LeftForeArm 6.267986 -0.000000 15.573813
LeftHand 0.363580 -0.000000 -4.826423
LeftHandThumb1 -26.253704 0.000000 33.147579
RightShoulder -3.688698 -2.136420 1.767077
RightArm 5.545844 -25.664137 64.619934
RightForeArm -18.464998 -0.000000 24.600222
RightHand -0.258865 -0.000000 3.027226
RightHandThumb1 -24.326973 -0.000000 -32.862282
LeftUpLeg 13.048912 17.522663 8.381959
LeftLeg -8.697676 -0.000000 0.000000
LeftFoot -14.962996 28.363751 -8.106928
LeftToeBase 22.831668 -0.000000 -0.000000
RightUpLeg 8.278636 -4.535465 2.579203
RightLeg -3.690888 -0.000000 0.000000
RightFoot -3.789259 -22.381317 5.604267
RightToeBase 13.863714 -0.000000 -0.000000
196
root -5.694368 35.255062 -10.736630 -3.377008 -9.186671 -5.978808
Spine 2.589610 0.588130 9.643297
Head 3.277609 12.989397 -4.442266
LeftShoulder -21.401585 14.995587 -15.735152
LeftArm 23.052491 -3.487282 -68.552347
LeftForeArm 6.302073 -0.000000 15.800844
LeftHand 0.364356 0.000000 -4.733090
LeftHandThumb1 -26.253704 0.000000 33.147579
RightShoulder -3.660209 -2.037113 1.760487
RightArm 5.639339 -25.473274 64.685350
RightForeArm -18.289247 -0.000000 24.682889
RightHand -0.264176 -0.000000 2.578626
RightHandThumb1 -24.326973 -0.000000 -32.862282
LeftUpLeg 13.012259 17.534160 8.389978
LeftLeg -8.692070 -0.000000 0.000000
LeftFoot -14.943759 28.346199 -8.085068
LeftToeBase 22.787882 -0.000000 -0.000000
RightUpLeg 8.254171 -4.560678 2.593921
RightLeg -3.700416 -0.000000 0.000000
RightFoot -3.777393 -22.364503 5.580370
RightToeBase 13.884241 -0.000000 -0.000000
197
root -5.700875 35.255107 -10.741574 -3.359219 -9.176712 -5.988528
Spine 2.547079 0.577219 9.629150
Head 3.285192 12.996181 -4.374344
LeftShoulder -21.345922 14.993510 -15.629728
LeftArm 23.255410 -3.182611 -68.313325
LeftForeArm 6.145948 0.000000 15.972727
LeftHand 0.399607 -0.000000 -4.530434
LeftHandThumb1 -26.253704 0.000000 33.147579
RightShoulder -3.629907 -1.965810 1.771993
RightArm 5.743625 -25.082933 64.816245
RightForeArm -18.415916 -0.000000 24.752969
RightHand -0.227933 0.000000 2.709820
RightHandThumb1 -24.326973 -0.000000 -32.862282
LeftUpLeg 12.980162 17.534113 8.405651
LeftLeg -8.681574 -0.000000 0.000000
LeftFoot -14.956285 28.342506 -8.080437
LeftToeBase 22.852758 -0.000000 -0.000000
RightUpLeg 8.237878 -4.576628 2.614426
RightLeg -3.711229 -0.000000 0.000000
RightFoot -3.773881 -22.351623 5.590535
RightToeBase 13.875462 -0.000000 -0.000000
198
root -5.708002 35.255166 -10.747615 -3.340680 -9.149624 -5.996201
Spine 2.506287 0.552654 9.606549
Head 3.283471 13.016764 -4.301654
LeftShoulder -21.270895 14.982420 -15.521569
LeftArm 23.425687 -2.944519 -68.087906
LeftForeArm 6.397781 -0.000000 16.181488
LeftHand 0.491654 -0.000000 -4.744015
LeftHandThumb1 -26.253704 0.000000 33.147579
RightShoulder -3.634708 -1.874232 1.805689
RightArm 5.915058 -25.170104 64.816711
RightForeArm -17.873410 0.000000 24.827591
RightHand -0.417153 0.000000 1.958005
RightHandThumb1 -24.326973 -0.000000 -32.862282
LeftUpLeg 12.940059 17.505589 8.414659
LeftLeg -8.672209 -0.000000 0.000000
LeftFoot -14.950526 28.354092 -8.071630
LeftToeBase 22.859201 -0.000000 -0.000000
RightUpLeg 8.211842 -4.625860 2.631100
RightLeg -3.706028 -0.000000 0.000000
RightFoot -3.764559 -22.324531 5.587568
RightToeBase 13.827030 -0.000000 -0.000000
199
root -5.717114 35.255345 -10.754930 -3.330855 -9.093835 -5.999503
Spine 2.474874 0.514614 9.559090
Head 3.289665 13.004696 -4.197854
LeftShoulder -21.173204 14.931479 -15.379952
LeftArm 23.574354 -2.646123 -67.855066
LeftForeArm 6.273399 -0.000000 16.338582
LeftHand 0.463609 -0.000000 -4.743804
LeftHandThumb1 -26.253704 0.000000 33.147579
RightShoulder -3.630223 -1.798545 1.871918
RightArm 6.069418 -25.069735 64.861120
RightForeArm -17.723385 -0.000000 24.926641
RightHand -0.414005 0.000000 1.543928
RightHandThumb1 -24.326973 -0.000000 -32.862282
LeftUpLeg 12.886175 17.433278 8.420376
LeftLeg -8.633290 -0.000000 0.000000
LeftFoot -14.958499 28.359750 -8.062351
LeftToeBase 22.865920 -0.000000 -0.000000
RightUpLeg 8.191350 -4.693224 2.646961
RightLeg -3.693831 -0.000000 0.000000
RightFoot -3.776848 -22.312887 5.582650
RightToeBase 13.858657 -0.000000 -0.000000
200
root -5.740162 35.256931 -10.778615 -3.253701 -9.150293 -6.029628
Spine 2.424033 0.615347 9.488105
Head 3.280051 12.978061 -4.035065
LeftShoulder -21.043592 14.864848 -15.215120
LeftArm 23.726482 -2.441500 -67.645605
LeftForeArm 6.402958 -0.000000 16.495162
LeftHand 0.490872 -0.000000 -4.809359
LeftHandThumb1 -26.253704 0.000000 33.147579
RightShoulder -3.631359 -1.723632 2.029499
RightArm 6.251764 -24.945024 64.891544
RightForeArm -17.447460 -0.000000 25.021111
RightHand -0.385871 -0.000000 1.160060
RightHandThumb1 -24.326973 -0.000000 -32.862282
LeftUpLeg 12.759343 17.544422 8.482497
LeftLeg -8.559614 -0.000000 0.000000
LeftFoot -14.951783 28.295074 -8.026941
LeftToeBase 22.925743 -0.000000 -0.000000
RightUpLeg 8.034910 -4.599334 2.742123
RightLeg -3.603710 -0.000000 0.000000
RightFoot -3.780954 -22.389570 5.524948
RightToeBase 13.867782 -0.000000 -0.000000
201
root -5.762893 35.258649 -10.810299 -3.157266 -9.342732 -6.092192
Spine 2.411477 0.844155 9.478503
Head 3.233431 12.948473 -3.909860
LeftShoulder -20.898750 14.764177 -15.061725
LeftArm 23.872465 -2.217790 -67.449108
LeftForeArm 6.371612 -0.000000 16.630969
LeftHand 0.453578 -0.000000 -4.766226
LeftHandThumb1 -26.253704 0.000000 33.147579
RightShoulder -3.612274 -1.577099 2.148208
RightArm 6.335514 -24.771184 64.979806
RightForeArm -17.419167 0.000000 25.146358
RightHand -0.271168 -0.000000 0.891271
RightHandThumb1 -24.326973 -0.000000 -32.862282
LeftUpLeg 12.658245 17.789462 8.589993
LeftLeg -8.520362 -0.000000 0.000000
LeftFoot -14.931627 28.243844 -7.961741
LeftToeBase 22.927859 -0.000000 -0.000000
RightUpLeg 7.796753 -4.361988 2.882834
RightLeg -3.421538 -0.000000 0.000000
RightFoot -3.793731 -22.465723 5.445247
RightToeBase 13.878971 -0.000000 -0.000000
202
root -5.769016 35.258373 -10.809707 -3.176820 -9.306733 -6.076181
Spine 2.389999 0.810732 9.429564
Head 3.270077 12.930409 -3.845381
LeftShoulder -20.818488 14.742499 -14.959706
LeftArm 24.020779 -1.973595 -67.291605
LeftForeArm 6.412050 -0.000000 16.768618
LeftHand 0.494044 -0.000000 -4.851529
LeftHandThumb1 -26.253704 0.000000 33.147579
RightShoulder -3.598871 -1.560998 2.206489
RightArm 6.506869 -24.692496 65.049598
RightForeArm -17.458501 -0.000000 25.266446
RightHand -0.258567 0.000000 0.701539
RightHandThumb1 -24.326973 -0.000000 -32.862282
LeftUpLeg 12.667496 17.718984 8.581752
LeftLeg -8.516478 -0.000000 0.000000
LeftFoot -14.930017 28.253281 -7.997891
LeftToeBase 22.924941 -0.000000 -0.000000
RightUpLeg 7.810887 -4.431034 2.864672
RightLeg -3.405278 -0.000000 0.000000
RightFoot -3.801277 -22.419047 5.425331
RightToeBase 13.860400 -0.000000 -0.000000
203
root -5.778803 35.258423 -10.811860 -3.197556 -9.262308 -6.083789
Spine 2.384175 0.769837 9.402233
Head 3.298035 12.922492 -3.777719
LeftShoulder -20.722767 14.686329 -14.851270
LeftArm 24.163045 -1.699507 -67.128856
LeftForeArm 6.394404 0.000000 16.855976
LeftHand 0.374119 -0.000000 -4.795967
LeftHandThumb1 -26.253704 0.000000 33.147579
RightShoulder -3.575815 -1.485669 2.249989
RightArm 6.652768 -24.634199 65.179485
RightForeArm -17.481462 -0.000000 25.343847
RightHand -0.347892 -0.000000 0.468046
RightHandThumb1 -24.326973 -0.000000 -32.862282
LeftUpLeg 12.678319 17.667238 8.605924
LeftLeg -8.519427 -0.000000 0.000000
LeftFoot -14.925229 28.251915 -8.000624
LeftToeBase 22.941108 -0.000000 -0.000000
RightUpLeg 7.832852 -4.489843 2.884751
RightLeg -3.403442 -0.000000 0.000000
RightFoot -3.812387 -22.417816 5.410137
RightToeBase 13.845647 -0.000000 -0.000000
